<?xml version="1.0" encoding="UTF-8"?> <svg xmlns="http://www.w3.org/2000/svg" xmlns:xlink="http://www.w3.org/1999/xlink" viewBox="0 0 705.418 378.276"><defs><style>.cls-1{fill:url(#Unbenannter_Verlauf_15);}.cls-2{fill:#bfe4ff;}.cls-3{fill:#181863;}.cls-4,.cls-6,.cls-8{fill:none;stroke-miterlimit:10;}.cls-4{stroke:#fff;stroke-width:1.502px;}.cls-5{fill:#0095ef;}.cls-6{stroke:#0c1153;stroke-width:1.286px;}.cls-7{fill:#f3aa06;}.cls-8{stroke:#2094f1;stroke-width:0.201px;}.cls-9{fill:#ebf6ff;}.cls-10{fill:#ffbf0d;}.cls-11{fill:#fece40;}.cls-12{fill:#fff;}</style><linearGradient id="Unbenannter_Verlauf_15" x1="352.709" y1="63.337" x2="352.709" y2="365.518" gradientUnits="userSpaceOnUse"><stop offset="0" stop-color="#fff" stop-opacity="0"></stop><stop offset="1" stop-color="#d4edff" stop-opacity="0.2"></stop></linearGradient></defs><title>8-a-get-in-touch</title><g id="Ebene_2" data-name="Ebene 2"><g id="Layer_3" data-name="Layer 3"><path class="cls-1" d="M154.113,107.683c49.673,1.141,203.446,2.615,295.557-13.519,170.8-29.92,317.285,44,229.472,113.868C654.6,227.56,738.63,357.779,556.859,375.767c-159.562,15.789-327.82-47.029-409.047-74.5C66.581,273.784,26.958,230.974,8.6,211.635-7.545,194.636-19.52,103.675,154.113,107.683Z"></path><path class="cls-2" d="M385.3,217.5c20.611-12.247,6.412-18.734-11.275-20.4,9.824-9.374,5.73-19.71-14.023-32.792-8.866-5.875-20.746-4.233-32.85,1.023-6.285-20.951-16.4-35.866-30.93-29.776-12.017,5.036-21.278,11.65-27.461,19.078a120.864,120.864,0,0,0-10.692-5.8c-8.365-4.03-15.145-2.248-20.514,3.04-15.689-13.707-32.2-22.483-43.427-15.233-19.53,12.61-23.387,24.6-13.276,37.854-17.736-1.072-31.848,4.4-10.823,23.092-20.625-4.8-35.909-3.713-28.806,12.183,15.842,35.44,109.145,50.531,181.2,42.343,44.638,1.658,82.693-4.306,91.887-20.548C421.073,219.6,405.794,216.532,385.3,217.5Z"></path><path class="cls-2" d="M574.071,171.683c28.5-16.935,8.866-25.906-15.59-28.2,13.585-12.963,7.924-27.254-19.392-45.347-12.263-8.123-28.691-5.856-45.424,1.415-8.695-28.974-22.675-49.6-42.776-41.177-16.619,6.964-29.428,16.11-37.976,26.383a166.753,166.753,0,0,0-14.785-8.028c-11.567-5.572-20.944-3.109-28.367,4.206-21.7-18.957-44.52-31.093-60.054-21.068C282.7,77.3,277.366,93.875,291.348,112.212c-24.526-1.484-44.043,6.086-14.968,31.931-28.522-6.634-49.657-5.134-39.833,16.848C258.454,210,387.478,230.869,487.116,219.546c61.726,2.293,114.352-5.955,127.063-28.416C623.54,174.592,602.41,170.348,574.071,171.683Z"></path><path class="cls-3" d="M550.057,159.893a92.922,92.922,0,0,0-58.81,63.692,92.716,92.716,0,0,0,144.559-50.931A92.938,92.938,0,0,0,550.057,159.893Z"></path><line class="cls-4" x1="624.249" y1="176.214" x2="496.573" y2="221.2"></line><line class="cls-4" x1="597.966" y1="185.644" x2="617.919" y2="197.026"></line><line class="cls-4" x1="576.194" y1="193.315" x2="600.793" y2="207.344"></line><line class="cls-4" x1="554.426" y1="200.985" x2="595.545" y2="224.44"></line><line class="cls-4" x1="532.655" y1="208.655" x2="572.659" y2="231.476"></line><line class="cls-4" x1="510.886" y1="216.323" x2="533.16" y2="229.031"></line><line class="cls-4" x1="600.459" y1="184.337" x2="608.869" y2="162.961"></line><line class="cls-4" x1="578.689" y1="192.01" x2="591.803" y2="158.68"></line><line class="cls-4" x1="556.916" y1="199.68" x2="573.339" y2="157.959"></line><line class="cls-4" x1="535.15" y1="207.351" x2="552.011" y2="164.494"></line><line class="cls-4" x1="513.378" y1="215.019" x2="527.866" y2="178.205"></line><path class="cls-5" d="M541.848,103.4c-26.121,21.61-39.737,52.121-39.184,81.077,28.339,5.968,60.863-1.692,86.982-23.3s39.74-52.123,39.183-81.079C600.491,74.134,567.966,81.794,541.848,103.4Z"></path><line class="cls-6" x1="618.597" y1="87.99" x2="507.171" y2="180.175"></line><line class="cls-6" x1="595.708" y1="107.118" x2="618.329" y2="109.256"></line><line class="cls-6" x1="576.709" y1="122.839" x2="604.589" y2="125.473"></line><line class="cls-6" x1="557.71" y1="138.555" x2="604.316" y2="142.963"></line><line class="cls-6" x1="538.71" y1="154.275" x2="584.055" y2="158.559"></line><line class="cls-6" x1="519.711" y1="169.994" x2="544.959" y2="172.38"></line><line class="cls-6" x1="597.764" y1="104.934" x2="599.898" y2="82.314"></line><line class="cls-6" x1="578.763" y1="120.655" x2="582.097" y2="85.383"></line><line class="cls-6" x1="559.763" y1="136.374" x2="563.934" y2="92.227"></line><line class="cls-6" x1="540.765" y1="152.092" x2="545.047" y2="106.747"></line><line class="cls-6" x1="521.764" y1="167.809" x2="525.445" y2="128.852"></line><path class="cls-7" d="M527.678,136.767,434.952,48.213a26.962,26.962,0,0,0-2.856-2.726l-.91-.867a.607.607,0,0,0-.1.037,25.764,25.764,0,0,0-31.24,0,.808.808,0,0,0-.1-.037l-.912.867a26.751,26.751,0,0,0-2.854,2.726l-92.728,88.554a10.478,10.478,0,0,0-3.064,7.425V248.973a15.719,15.719,0,0,0,15.719,15.72H515.023a15.718,15.718,0,0,0,15.719-15.72V144.192A10.486,10.486,0,0,0,527.678,136.767Z"></path><path class="cls-8" d="M467.864,165.135a52.4,52.4,0,1,1-52.4-52.4A52.391,52.391,0,0,1,467.864,165.135Z"></path><path class="cls-9" d="M515.023,233.254V112.738L457.383,55.1H331.631a15.721,15.721,0,0,0-15.723,15.717V233.254Z"></path><path class="cls-10" d="M515.023,264.693H315.908a15.719,15.719,0,0,1-15.719-15.72v-104.8Z"></path><path class="cls-11" d="M315.908,264.693H515.023a15.718,15.718,0,0,0,15.719-15.72v-104.8Z"></path><path class="cls-5" d="M457.383,55.1V97.018a15.725,15.725,0,0,0,15.722,15.72h41.918Z"></path><rect class="cls-2" x="353.014" y="123.217" width="127.469" height="10.48"></rect><rect class="cls-2" x="353.014" y="144.175" width="81.357" height="10.481"></rect><rect class="cls-2" x="353.014" y="102.256" width="49.231" height="10.483"></rect><path class="cls-10" d="M188.258,0h84.575a6.677,6.677,0,0,1,6.677,6.677V64.545a6.676,6.676,0,0,1-6.676,6.676H188.255a6.676,6.676,0,0,1-6.676-6.676V6.679A6.679,6.679,0,0,1,188.258,0Z"></path><path class="cls-10" d="M188.258,0h84.575a6.677,6.677,0,0,1,6.677,6.677V64.545a6.676,6.676,0,0,1-6.676,6.676H188.255a6.676,6.676,0,0,1-6.676-6.676V6.679A6.679,6.679,0,0,1,188.258,0Z"></path><path class="cls-7" d="M272.834,0H188.258a6.678,6.678,0,0,0-6.679,6.677v3.5l77.7,61.046h13.558a6.676,6.676,0,0,0,6.676-6.676V6.677A6.676,6.676,0,0,0,272.834,0Z"></path><path class="cls-11" d="M230.545,44.513l48.965-34.06V6.677A6.676,6.676,0,0,0,272.834,0H188.258a6.678,6.678,0,0,0-6.679,6.677v3.776Z"></path><path class="cls-5" d="M339.3,68.083v5.351l-6.02-5.351h-23.4a2.674,2.674,0,0,1-2.676-2.675V31.969a2.675,2.675,0,0,1,2.676-2.675h37.451a2.677,2.677,0,0,1,2.677,2.675V65.408a2.676,2.676,0,0,1-2.677,2.675h-4.013"></path><path class="cls-12" d="M316.565,60.059V58.72a8.024,8.024,0,0,1,8.026-8.025h8.026a8.025,8.025,0,0,1,8.024,8.025v1.339Z"></path><path class="cls-12" d="M323.254,41.332a5.35,5.35,0,1,0,5.349-5.35A5.351,5.351,0,0,0,323.254,41.332Z"></path></g></g></svg> 